<svg width="25" height="24" viewBox="0 0 25 24" fill="none" xmlns="http://www.w3.org/2000/svg">
<path d="M1.625 1.5H3.242C3.837 1.5 4.35617 1.90017 4.51017 2.47417L4.957 4.15067M4.957 4.15067C11.4561 3.96854 17.9489 4.69101 24.249 6.29733C23.2877 9.16033 22.1455 11.9417 20.8377 14.625H7.75M4.957 4.15067L7.75 14.625M7.75 14.625C6.82174 14.625 5.9315 14.9937 5.27513 15.6501C4.61875 16.3065 4.25 17.1967 4.25 18.125H22.625M6 21.625C6 21.8571 5.90781 22.0796 5.74372 22.2437C5.57962 22.4078 5.35706 22.5 5.125 22.5C4.89294 22.5 4.67038 22.4078 4.50628 22.2437C4.34219 22.0796 4.25 21.8571 4.25 21.625C4.25 21.3929 4.34219 21.1704 4.50628 21.0063C4.67038 20.8422 4.89294 20.75 5.125 20.75C5.35706 20.75 5.57962 20.8422 5.74372 21.0063C5.90781 21.1704 6 21.3929 6 21.625ZM20.875 21.625C20.875 21.8571 20.7828 22.0796 20.6187 22.2437C20.4546 22.4078 20.2321 22.5 20 22.5C19.7679 22.5 19.5454 22.4078 19.3813 22.2437C19.2172 22.0796 19.125 21.8571 19.125 21.625C19.125 21.3929 19.2172 21.1704 19.3813 21.0063C19.5454 20.8422 19.7679 20.75 20 20.75C20.2321 20.75 20.4546 20.8422 20.6187 21.0063C20.7828 21.1704 20.875 21.3929 20.875 21.625Z" stroke="black" stroke-width="1.5" stroke-linecap="round" stroke-linejoin="round"/>
</svg>
