<svg width="24" height="24" viewBox="0 0 24 24" fill="none" xmlns="http://www.w3.org/2000/svg">
<path fill-rule="evenodd" clip-rule="evenodd" d="M19.5 9.74991C19.5 9.94882 19.421 10.1396 19.2803 10.2802C19.1397 10.4209 18.9489 10.4999 18.75 10.4999H14.25C14.0511 10.4999 13.8603 10.4209 13.7197 10.2802C13.579 10.1396 13.5 9.94882 13.5 9.74991V5.24991C13.5 5.051 13.579 4.86023 13.7197 4.71958C13.8603 4.57893 14.0511 4.49991 14.25 4.49991C14.4489 4.49991 14.6397 4.57893 14.7803 4.71958C14.921 4.86023 15 5.051 15 5.24991V7.93991L19.72 3.21991C19.7887 3.14622 19.8715 3.08712 19.9635 3.04613C20.0555 3.00514 20.1548 2.98309 20.2555 2.98132C20.3562 2.97954 20.4562 2.99807 20.5496 3.03579C20.643 3.07351 20.7278 3.12965 20.799 3.20087C20.8703 3.27209 20.9264 3.35692 20.9641 3.45031C21.0018 3.5437 21.0204 3.64373 21.0186 3.74443C21.0168 3.84513 20.9948 3.94445 20.9538 4.03645C20.9128 4.12845 20.8537 4.21125 20.78 4.27991L16.06 8.99991H18.75C18.9489 8.99991 19.1397 9.07893 19.2803 9.21958C19.421 9.36023 19.5 9.551 19.5 9.74991Z" fill="black"/>
<path fill-rule="evenodd" clip-rule="evenodd" d="M1.5 4.5C1.5 3.70435 1.81607 2.94129 2.37868 2.37868C2.94129 1.81607 3.70435 1.5 4.5 1.5H5.872C6.732 1.5 7.482 2.086 7.691 2.92L8.796 7.343C8.88554 7.701 8.86746 8.07746 8.74401 8.42522C8.62055 8.77299 8.39723 9.07659 8.102 9.298L6.809 10.268C6.674 10.369 6.645 10.517 6.683 10.62C7.24738 12.1549 8.1386 13.5487 9.29495 14.7051C10.4513 15.8614 11.8451 16.7526 13.38 17.317C13.483 17.355 13.63 17.326 13.732 17.191L14.702 15.898C14.9234 15.6028 15.227 15.3794 15.5748 15.256C15.9225 15.1325 16.299 15.1145 16.657 15.204L21.08 16.309C21.914 16.518 22.5 17.268 22.5 18.129V19.5C22.5 20.2956 22.1839 21.0587 21.6213 21.6213C21.0587 22.1839 20.2956 22.5 19.5 22.5H17.25C8.552 22.5 1.5 15.448 1.5 6.75V4.5Z" fill="black"/>
</svg>
