<svg width="31" height="28" viewBox="0 0 31 28" fill="none" xmlns="http://www.w3.org/2000/svg">
<circle cx="15.6992" cy="8.5" r="8" stroke="white"/>
<mask id="path-2-inside-1_1_115" fill="white">
<path fill-rule="evenodd" clip-rule="evenodd" d="M28.6637 28C25.8936 23.7838 21.122 21 15.7001 21C10.2783 21 5.50669 23.7838 2.73657 28H0.399445C3.38809 22.6317 9.12001 19 15.7001 19C22.2803 19 28.0122 22.6317 31.0008 28H28.6637Z"/>
</mask>
<path d="M28.6637 28L27.828 28.5491L28.1242 29H28.6637V28ZM2.73657 28V29H3.27608L3.57232 28.5491L2.73657 28ZM0.399445 28L-0.474281 27.5136L-1.3018 29H0.399445V28ZM31.0008 28V29H32.7021L31.8746 27.5136L31.0008 28ZM29.4995 27.4509C26.5523 22.9652 21.4728 20 15.7001 20V22C20.7712 22 25.2349 24.6023 27.828 28.5491L29.4995 27.4509ZM15.7001 20C9.92753 20 4.84798 22.9652 1.90081 27.4509L3.57232 28.5491C6.1654 24.6023 10.6291 22 15.7001 22V20ZM0.399445 29H2.73657V27H0.399445V29ZM15.7001 18C8.74268 18 2.68371 21.8411 -0.474281 27.5136L1.27317 28.4864C4.09248 23.4223 9.49733 20 15.7001 20V18ZM31.8746 27.5136C28.7166 21.8411 22.6576 18 15.7001 18V20C21.903 20 27.3078 23.4223 30.1271 28.4864L31.8746 27.5136ZM28.6637 29H31.0008V27H28.6637V29Z" fill="white" mask="url(#path-2-inside-1_1_115)"/>
<path fill-rule="evenodd" clip-rule="evenodd" d="M10.4062 10C11.0591 12.3085 13.1816 14 15.6992 14C18.2167 14 20.3392 12.3085 20.9921 10H19.9431C19.3254 11.7478 17.6585 13 15.6992 13C13.7398 13 12.073 11.7478 11.4552 10H10.4062Z" fill="white"/>
</svg>
