<svg width="25" height="29" viewBox="0 0 25 29" fill="none" xmlns="http://www.w3.org/2000/svg">
<mask id="path-1-outside-1_1_82" maskUnits="userSpaceOnUse" x="3.31035" y="11.2069" width="19" height="18" fill="black">
<rect fill="white" x="3.31035" y="11.2069" width="19" height="18"/>
<path d="M4.31035 11.2069H20.6897V27.5862H4.31035V11.2069Z"/>
</mask>
<path d="M20.6897 27.5862V28.5862C21.2419 28.5862 21.6897 28.1385 21.6897 27.5862H20.6897ZM4.31035 27.5862H3.31035C3.31035 28.1385 3.75806 28.5862 4.31035 28.5862V27.5862ZM19.6897 11.2069V27.5862H21.6897V11.2069H19.6897ZM20.6897 26.5862H4.31035V28.5862H20.6897V26.5862ZM5.31035 27.5862V11.2069H3.31035V27.5862H5.31035Z" fill="white" mask="url(#path-1-outside-1_1_82)"/>
<path d="M3.87931 25.431H8.18966M21.1207 25.431H16.8103M12.5 25.431V19.3965M12.5 25.431H8.18966M12.5 25.431H16.8103M8.18966 25.431V21.9828M16.8103 25.431V21.9828" stroke="white" stroke-linecap="round" stroke-linejoin="round"/>
<path fill-rule="evenodd" clip-rule="evenodd" d="M7.54272 2.69583C8.08364 2.30629 8.66386 2.01865 9.25691 1.83011C10.4508 1.30684 11.8515 1 13.3621 1C15.5848 1 17.5693 1.66431 19.0077 2.70488C19.5122 2.90945 19.9852 3.24973 20.3671 3.71602C20.511 3.89171 20.6348 4.07656 20.7386 4.26733C21.3247 4.22831 21.8896 4.44818 22.2438 4.89033C23.2653 5.50575 24 6.71316 24 8.18965C24 10.3478 22.4304 11.931 20.6897 11.931V12.931C23.0702 12.931 25 10.8082 25 8.18965C25 5.77264 23.3559 3.77804 21.2307 3.48528C19.6727 1.40351 16.7325 0 13.3621 0C9.92841 0 6.9413 1.45666 5.40719 3.60315C5.05698 3.50209 4.68938 3.44828 4.31034 3.44828C1.92981 3.44828 0 5.57106 0 8.18965C0 10.8082 1.92981 12.931 4.31034 12.931V11.931C2.56965 11.931 1 10.3478 1 8.18965C1 8.04572 1.00698 7.90434 1.02053 7.76581C0.924865 6.67619 1.57441 5.49585 2.74307 4.83309C3.76634 4.25279 4.92586 4.21772 5.7933 4.64854C6.20432 3.91006 6.79258 3.23604 7.54272 2.69583Z" fill="white"/>
</svg>
