<svg width="27" height="27" viewBox="0 0 27 27" fill="none" xmlns="http://www.w3.org/2000/svg">
<g clip-path="url(#clip0_1_127)">
<path d="M1.2652 11.1198V21.943C1.2652 22.5247 1.73812 22.9977 2.31989 22.9977C2.90165 22.9977 3.37457 22.5247 3.37457 21.943V11.1198C4.10062 10.9312 4.6402 10.276 4.6402 9.49218V4.42884C4.6402 4.31695 4.59575 4.20965 4.51663 4.13053C4.43752 4.05141 4.33021 4.00697 4.21832 4.00697C4.10643 4.00697 3.99913 4.05141 3.92001 4.13053C3.8409 4.20965 3.79645 4.31695 3.79645 4.42884V7.80384H3.37457V4.42884C3.37457 4.31695 3.33013 4.20965 3.25101 4.13053C3.17189 4.05141 3.06459 4.00697 2.9527 4.00697C2.84081 4.00697 2.7335 4.05141 2.65439 4.13053C2.57527 4.20965 2.53082 4.31695 2.53082 4.42884V7.80384H2.10895V4.42884C2.10895 4.31695 2.0645 4.20965 1.98538 4.13053C1.90627 4.05141 1.79896 4.00697 1.68707 4.00697C1.57518 4.00697 1.46788 4.05141 1.38876 4.13053C1.30965 4.20965 1.2652 4.31695 1.2652 4.42884V7.80384H0.843323V4.42884C0.843323 4.31695 0.798875 4.20965 0.719758 4.13053C0.640642 4.05141 0.533336 4.00697 0.421448 4.00697C0.30956 4.00697 0.202254 4.05141 0.123137 4.13053C0.0440202 4.20965 -0.000427246 4.31695 -0.000427246 4.42884V9.49218C-0.000427246 10.276 0.539151 10.9312 1.2652 11.1198ZM2.53082 21.9434C2.53082 22.0594 2.4359 22.1543 2.31989 22.1543C2.20387 22.1543 2.10895 22.0594 2.10895 21.9434V11.1797H2.53082V21.9434ZM0.843323 8.64759H3.79645V9.49218C3.79645 9.95751 3.41803 10.3359 2.9527 10.3359H1.68707C1.22174 10.3359 0.843323 9.95751 0.843323 9.49218V8.64759ZM24.046 4.00275C23.9341 4.00275 23.8268 4.04719 23.7477 4.12631C23.6686 4.20543 23.6242 4.31273 23.6242 4.42462C23.6242 4.42715 23.6254 4.42884 23.6254 4.43095V21.9434C23.6254 22.5252 24.0983 22.9981 24.6801 22.9981C25.2619 22.9981 25.7348 22.5252 25.7348 21.9434V14.5581H26.5785C26.6339 14.5581 26.6888 14.5471 26.74 14.5259C26.7912 14.5047 26.8377 14.4737 26.8769 14.4345C26.916 14.3953 26.9471 14.3488 26.9683 14.2976C26.9895 14.2464 27.0004 14.1916 27.0004 14.1362V6.95672C27.0004 5.32786 25.6749 4.00275 24.046 4.00275ZM24.891 21.9434C24.891 22.0594 24.7961 22.1543 24.6801 22.1543C24.5641 22.1543 24.4692 22.0594 24.4692 21.9434V14.5581H24.891V21.9434ZM26.1567 13.7143H24.4692V4.88953C25.4306 5.08612 26.1567 5.93831 26.1567 6.95672V13.7143Z" fill="white"/>
<path d="M13.7105 4.00189C8.47673 4.00189 4.21832 8.2603 4.21832 13.4941C4.21832 18.7279 8.47673 22.9863 13.7105 22.9863C18.9443 22.9863 23.2027 18.7279 23.2027 13.4941C23.2027 8.2603 18.9443 4.00189 13.7105 4.00189ZM13.7105 22.1425C8.94164 22.1425 5.06207 18.263 5.06207 13.4941C5.06207 8.7252 8.94164 4.84564 13.7105 4.84564C18.4794 4.84564 22.3589 8.7252 22.3589 13.4941C22.3589 18.263 18.4794 22.1425 13.7105 22.1425Z" fill="white"/>
<path d="M13.7105 6.95502C10.1047 6.95502 7.17145 9.88831 7.17145 13.4941C7.17145 17.0998 10.1047 20.0331 13.7105 20.0331C17.3163 20.0331 20.2496 17.0998 20.2496 13.4941C20.2496 9.88831 17.3163 6.95502 13.7105 6.95502ZM13.7105 19.1894C10.5701 19.1894 8.0152 16.6345 8.0152 13.4941C8.0152 10.3536 10.5701 7.79877 13.7105 7.79877C16.8509 7.79877 19.4058 10.3536 19.4058 13.4941C19.4058 16.6345 16.8509 19.1894 13.7105 19.1894Z" fill="white"/>
</g>
<defs>
<clipPath id="clip0_1_127">
<rect width="27" height="27" fill="white"/>
</clipPath>
</defs>
</svg>
