<svg width="33" height="21" viewBox="0 0 33 21" fill="none" xmlns="http://www.w3.org/2000/svg">
<path d="M1.793 1.14699e-05H19.1357C19.3714 -0.000843341 19.605 0.0460895 19.8229 0.138106C20.0408 0.230123 20.2388 0.365405 20.4054 0.53616C20.5721 0.706914 20.7041 0.909766 20.7939 1.13303C20.8837 1.3563 20.9296 1.59556 20.9287 1.83704V15.8735C20.9287 16.1144 20.8823 16.353 20.7921 16.5755C20.7019 16.798 20.5698 17.0001 20.4032 17.1702C20.2366 17.3403 20.0389 17.475 19.8214 17.5666C19.6039 17.6582 19.3709 17.7049 19.1357 17.7041H8.48513C8.45138 17.2133 8.30189 16.7383 8.04951 16.3198H19.1357C19.1941 16.3207 19.252 16.3097 19.3062 16.2875C19.3604 16.2653 19.4097 16.2323 19.4514 16.1905C19.4922 16.1478 19.5244 16.0972 19.5461 16.0417C19.5678 15.9862 19.5785 15.9268 19.5777 15.867V1.83057C19.5777 1.71206 19.5323 1.59827 19.4514 1.51362C19.4097 1.47177 19.3604 1.4388 19.3062 1.41659C19.252 1.39439 19.1941 1.3834 19.1357 1.38425H1.793C1.73465 1.3834 1.67672 1.39439 1.62254 1.41659C1.56836 1.4388 1.51901 1.47177 1.47733 1.51362C1.43649 1.55632 1.4043 1.60688 1.38263 1.66239C1.36096 1.7179 1.35023 1.77726 1.35107 1.83704V15.8735C1.35107 15.9899 1.40157 16.1064 1.47733 16.1905C1.51901 16.2323 1.56836 16.2653 1.62254 16.2875C1.67672 16.3097 1.73465 16.3207 1.793 16.3198H2.96728C2.71268 16.7377 2.56102 17.2128 2.52535 17.7041H1.793C1.55731 17.7049 1.32378 17.658 1.10587 17.566C0.887954 17.474 0.689965 17.3387 0.523305 17.1679C0.356644 16.9972 0.224606 16.7943 0.134795 16.5711C0.0449845 16.3478 -0.000823122 16.1085 1.11949e-05 15.867V1.83057C9.72676e-06 1.58963 0.0464319 1.35107 0.136615 1.12855C0.226799 0.906034 0.358969 0.703947 0.525546 0.533879C0.692124 0.36381 0.889831 0.229107 1.10733 0.137494C1.32483 0.0458808 1.55784 -0.000839902 1.793 1.14699e-05Z" fill="white"/>
<path d="M20.2473 9.98072H30.3486C30.6084 9.97987 30.8657 10.0317 31.1058 10.1331C31.346 10.2345 31.5641 10.3836 31.7478 10.5718C31.9315 10.76 32.077 10.9835 32.176 11.2295C32.275 11.4756 32.3256 11.7392 32.3247 12.0053V15.6794C32.3256 15.9455 32.275 16.2092 32.176 16.4552C32.077 16.7012 31.9315 16.9247 31.7478 17.1129C31.5641 17.3011 31.346 17.4502 31.1058 17.5516C30.8657 17.6531 30.6084 17.7049 30.3486 17.704H28.3663C28.3325 17.2133 28.183 16.7383 27.9306 16.3198H30.3486C30.5152 16.3173 30.674 16.2476 30.7906 16.1257C30.9095 16.0063 30.9776 15.8435 30.98 15.6729V12.0053C30.9776 11.8347 30.9095 11.672 30.7906 11.5525C30.674 11.4307 30.5152 11.3609 30.3486 11.3585H20.2473V9.98072ZM22.4128 17.704H18.0187V16.3198H22.8484C22.5938 16.7377 22.4485 17.2127 22.4128 17.704Z" fill="white"/>
<path d="M20.2466 4.12024C20.0795 4.13685 19.9245 4.2166 19.8116 4.34395C19.6988 4.4713 19.6363 4.63713 19.6363 4.80913C19.6363 4.98112 19.6988 5.14695 19.8116 5.2743C19.9245 5.40165 20.0795 5.48141 20.2466 5.49801H24.7291L28.1383 10.7698C28.1868 10.8454 28.2493 10.9104 28.3224 10.9613C28.3954 11.0121 28.4775 11.0477 28.564 11.066C28.6505 11.0843 28.7396 11.085 28.8264 11.068C28.9131 11.0511 28.9957 11.0168 29.0695 10.9671C29.1433 10.9174 29.2068 10.8533 29.2564 10.7784C29.306 10.7036 29.3408 10.6195 29.3586 10.5309C29.3765 10.4423 29.3772 10.3509 29.3606 10.2621C29.3441 10.1732 29.3106 10.0886 29.2621 10.013L25.6761 4.46953C25.617 4.3634 25.5316 4.27517 25.4285 4.21382C25.3253 4.15247 25.2082 4.12018 25.0889 4.12024H20.2466Z" fill="white"/>
<path d="M25.3862 14.8712C25.9778 14.868 26.557 15.0453 27.05 15.3806C27.5429 15.7158 27.9273 16.1938 28.1541 16.7537C28.381 17.3136 28.44 17.93 28.3237 18.5244C28.2074 19.1187 27.9211 19.6642 27.5011 20.0912C27.0847 20.5237 26.5518 20.8191 25.9705 20.9396C25.3893 21.06 24.7863 21.0001 24.2385 20.7674C23.6907 20.5347 23.2232 20.1399 22.8956 19.6334C22.5681 19.1269 22.3955 18.5318 22.4 17.9243C22.3991 17.5223 22.4758 17.1241 22.6256 16.7525C22.7753 16.3809 22.9953 16.0433 23.2727 15.759C23.5502 15.4747 23.8797 15.2494 24.2424 15.0959C24.6051 14.9425 24.9938 14.8704 25.3862 14.8712ZM26.5478 16.7406C26.3195 16.5044 26.0277 16.3432 25.7097 16.2774C25.3917 16.2117 25.0617 16.2443 24.7619 16.3712C24.462 16.4981 24.2057 16.7136 24.0257 16.9902C23.8457 17.2667 23.7501 17.5919 23.751 17.9243C23.7488 18.2573 23.8436 18.5834 24.0231 18.8609C24.2026 19.1385 24.4588 19.3549 24.7589 19.4827C25.059 19.6104 25.3895 19.6436 25.7081 19.578C26.0268 19.5124 26.3191 19.3511 26.5478 19.1145C26.7003 18.9588 26.8214 18.7739 26.9039 18.5702C26.9865 18.3665 27.029 18.1481 27.029 17.9275C27.029 17.707 26.9865 17.4886 26.9039 17.2849C26.8214 17.0812 26.7003 16.8962 26.5478 16.7406Z" fill="white"/>
<path d="M5.51192 14.8712C6.10304 14.8693 6.68137 15.0476 7.17334 15.3833C7.66532 15.7191 8.04871 16.1971 8.27477 16.7568C8.50083 17.3164 8.55933 17.9322 8.44284 18.526C8.32635 19.1198 8.04013 19.6646 7.62057 20.0913C7.20413 20.5238 6.67121 20.8191 6.08999 20.9396C5.50878 21.06 4.90571 21.0001 4.35794 20.7674C3.81017 20.5347 3.34261 20.1399 3.01509 19.6334C2.68757 19.1269 2.51498 18.5319 2.5194 17.9243C2.51856 17.5218 2.59544 17.123 2.74561 16.751C2.89578 16.379 3.11628 16.0411 3.39441 15.7567C3.67254 15.4723 4.00282 15.2471 4.36623 15.0941C4.72964 14.941 5.119 14.8695 5.51192 14.8712ZM6.66726 16.7406C6.43893 16.5045 6.14718 16.3432 5.82915 16.2775C5.51111 16.2117 5.18117 16.2443 4.8813 16.3712C4.58143 16.4982 4.32519 16.7136 4.14519 16.9902C3.96518 17.2667 3.86955 17.5919 3.87045 17.9243C3.86829 18.2573 3.96301 18.5834 4.14253 18.8609C4.32205 19.1385 4.57823 19.355 4.87836 19.4827C5.17849 19.6104 5.50897 19.6436 5.82759 19.578C6.14622 19.5125 6.43855 19.3511 6.66726 19.1145C6.81978 18.9589 6.9408 18.7739 7.02338 18.5702C7.10595 18.3665 7.14846 18.1481 7.14846 17.9276C7.14846 17.707 7.10595 17.4886 7.02338 17.2849C6.9408 17.0812 6.81978 16.8963 6.66726 16.7406Z" fill="white"/>
<path d="M31.6554 13.6678C31.8345 13.6678 32.0063 13.5949 32.133 13.4651C32.2597 13.3353 32.3309 13.1593 32.3309 12.9757C32.3309 12.7921 32.2597 12.6161 32.133 12.4863C32.0063 12.3565 31.8345 12.2836 31.6554 12.2836H28.6628C28.4837 12.2836 28.3118 12.3565 28.1852 12.4863C28.0585 12.6161 27.9873 12.7921 27.9873 12.9757C27.9873 13.1593 28.0585 13.3353 28.1852 13.4651C28.3118 13.5949 28.4837 13.6678 28.6628 13.6678H31.6554Z" fill="white"/>
</svg>
